<svg xmlns="http://www.w3.org/2000/svg" viewBox="0 0 200 200" fill="none">
  <!-- Map base -->
  <rect x="20" y="100" width="160" height="80" rx="10" fill="#daeaf7" opacity="0.7"/>
  <!-- Water patches on map -->
  <ellipse cx="70" cy="130" rx="28" ry="14" fill="#a8cce8" opacity="0.7"/>
  <ellipse cx="140" cy="148" rx="22" ry="10" fill="#a8cce8" opacity="0.7"/>
  <!-- Small pins on map -->
  <circle cx="55" cy="118" r="5" fill="#1a2e6c"/>
  <path d="M55 123 L55 118" stroke="#1a2e6c" stroke-width="2"/>
  <circle cx="130" cy="122" r="5" fill="#1a2e6c"/>
  <path d="M130 127 L130 122" stroke="#1a2e6c" stroke-width="2"/>
  <circle cx="155" cy="132" r="5" fill="#1a2e6c"/>
  <path d="M155 137 L155 132" stroke="#1a2e6c" stroke-width="2"/>
  <!-- Map pin body -->
  <path d="M100 20 C79 20 62 37 62 58 C62 82 100 110 100 110 C100 110 138 82 138 58 C138 37 121 20 100 20Z" fill="#1a2e6c"/>
  <!-- Pin inner circle -->
  <circle cx="100" cy="57" r="22" fill="white"/>
  <!-- Boat icon -->
  <path d="M88 62 L112 62 L108 68 L92 68 Z" fill="#1a2e6c"/>
  <path d="M100 50 L100 62" stroke="#1a2e6c" stroke-width="2.5" stroke-linecap="round"/>
  <path d="M100 50 L110 58 L100 58Z" fill="#1a2e6c"/>
  <!-- Waves under boat -->
  <path d="M88 70 Q92 68 96 70 Q100 72 104 70 Q108 68 112 70" stroke="#1a2e6c" stroke-width="1.5" stroke-linecap="round" fill="none"/>
</svg>
