<svg xmlns="http://www.w3.org/2000/svg" viewBox="0 0 500 420" fill="none">
  <defs>
    <linearGradient id="mapGrad" x1="0%" y1="0%" x2="100%" y2="100%">
      <stop offset="0%" stop-color="#d6e8f5"/>
      <stop offset="60%" stop-color="#b8d4ec"/>
      <stop offset="100%" stop-color="#cce0f4"/>
    </linearGradient>
  </defs>

  <!-- MAP SHADOW -->
  <path d="M96 318 Q96 304 112 299 L250 256 L390 256 L404 261 L414 269 L418 281 L388 368 L346 403 Q335 411 323 406 L250 383 L177 406 Q165 411 154 403 L120 368 L96 318Z"
        fill="rgba(0,0,0,0.09)" transform="translate(4,7)"/>

  <!-- MAP BODY -->
  <path d="M96 318 Q96 304 112 299 L250 256 L390 256 L404 261 L414 269 L418 281 L388 368 L346 403 Q335 411 323 406 L250 383 L177 406 Q165 411 154 403 L120 368 L96 318Z"
        fill="url(#mapGrad)"/>

  <!-- WATER PATCHES -->
  <ellipse cx="196" cy="324" rx="58" ry="22" fill="#9ac3e0" opacity="0.55"/>
  <ellipse cx="188" cy="318" rx="36" ry="13" fill="#82b4d8" opacity="0.5"/>
  <ellipse cx="318" cy="348" rx="52" ry="19" fill="#9ac3e0" opacity="0.5"/>
  <ellipse cx="336" cy="376" rx="32" ry="11" fill="#82b4d8" opacity="0.45"/>
  <ellipse cx="150" cy="362" rx="26" ry="10" fill="#9ac3e0" opacity="0.4"/>

  <!-- LAND/WHITE HIGHLIGHTS -->
  <ellipse cx="270" cy="290" rx="42" ry="13" fill="rgba(255,255,255,0.52)"/>
  <ellipse cx="365" cy="302" rx="28" ry="10" fill="rgba(255,255,255,0.45)"/>
  <ellipse cx="148" cy="296" rx="22" ry="8" fill="rgba(255,255,255,0.48)"/>
  <ellipse cx="250" cy="365" rx="38" ry="9" fill="rgba(255,255,255,0.3)"/>

  <!-- SMALL MAP PIN 1 (left) -->
  <g transform="translate(148,300)">
    <path d="M0-16C-7-16-12-10-12-4C-12 4 0 16 0 16C0 16 12 4 12-4C12-10 7-16 0-16Z" fill="#3d6fb5"/>
    <circle cx="0" cy="-4" r="5" fill="white"/>
  </g>
  <!-- SMALL MAP PIN 2 (top right) -->
  <g transform="translate(344,282)">
    <path d="M0-15C-6.5-15-11-9.5-11-4C-11 4 0 15 0 15C0 15 11 4 11-4C11-9.5 6.5-15 0-15Z" fill="#3d6fb5"/>
    <circle cx="0" cy="-4" r="4.5" fill="white"/>
  </g>
  <!-- SMALL MAP PIN 3 (right) -->
  <g transform="translate(366,348)">
    <path d="M0-14C-6-14-10-9-10-3.5C-10 4 0 14 0 14C0 14 10 4 10-3.5C10-9 6-14 0-14Z" fill="#3d6fb5"/>
    <circle cx="0" cy="-3.5" r="4.2" fill="white"/>
  </g>
  <!-- SMALL MAP PIN 4 (bottom center) -->
  <g transform="translate(250,378)">
    <path d="M0-13C-5.5-13-9.5-8.5-9.5-3C-9.5 4 0 13 0 13C0 13 9.5 4 9.5-3C9.5-8.5 5.5-13 0-13Z" fill="#3d6fb5"/>
    <circle cx="0" cy="-3" r="4" fill="white"/>
  </g>

  <!-- MAIN PIN SHADOW -->
  <path d="M250 42C205 42 168 79 168 124C168 180 250 282 250 282C250 282 332 180 332 124C332 79 295 42 250 42Z"
        fill="rgba(0,0,0,0.13)" transform="translate(5,7)"/>

  <!-- MAIN PIN BODY -->
  <path d="M250 42C205 42 168 79 168 124C168 180 250 282 250 282C250 282 332 180 332 124C332 79 295 42 250 42Z"
        fill="#192d61"/>

  <!-- INNER WHITE CIRCLE -->
  <circle cx="250" cy="118" r="52" fill="white"/>

  <!-- BOAT HULL -->
  <path d="M220 136 L280 136 L274 148 L226 148 Z" fill="#192d61"/>
  <!-- CABIN -->
  <rect x="233" y="118" width="34" height="18" rx="4" fill="#192d61"/>
  <!-- UPPER CABIN -->
  <rect x="240" y="109" width="20" height="11" rx="3" fill="#192d61"/>
  <!-- MAST -->
  <line x1="250" y1="98" x2="250" y2="109" stroke="#192d61" stroke-width="3" stroke-linecap="round"/>
  <!-- WAVES -->
  <path d="M222 152 Q228 149 234 152 Q240 155 246 152 Q252 149 258 152 Q264 155 270 152 Q275 149 278 152"
        stroke="#192d61" stroke-width="2.2" stroke-linecap="round" fill="none"/>
  <path d="M226 158 Q232 155 238 158 Q244 161 250 158 Q256 155 262 158 Q267 161 272 158"
        stroke="#192d61" stroke-width="1.5" stroke-linecap="round" fill="none" opacity="0.45"/>
</svg>
